<svg width="651" height="164" viewBox="0 0 651 164" fill="none" xmlns="http://www.w3.org/2000/svg">
<path d="M32.7902 7.91992L0.180176 161.21H23.9102L37.7302 96.2699H67.6902L72.6502 72.8599H42.7002L51.5502 31.2599H86.3802L91.3502 7.91992H32.7902Z" fill="#231F20"/>
<path d="M106.46 7.91992L73.8398 161.21H132.4L137.36 137.88H102.54L130.18 7.91992H106.46Z" fill="#231F20"/>
<path d="M205.23 50.7499L200.82 105.68H186.29L205.23 50.7499ZM198.5 7.91992L162.09 106.29L143.08 161.21H167.1L178.3 129.09H198.93L196.31 161.21H220.19L224.6 106.84L230.04 7.91992H198.5Z" fill="#231F20"/>
<path d="M257.88 7.91992L252.91 31.2599H273.38L245.74 161.21H269.46L297.11 31.2599H317.58L322.53 7.91992H257.88Z" fill="#231F20"/>
<path d="M336.88 7.91992L304.27 161.21H362.83L367.79 137.88H332.96L360.6 7.91992H336.88Z" fill="#231F20"/>
<path d="M409.39 7.91992L376.77 161.21H400.51L433.11 7.91992H409.39Z" fill="#231F20"/>
<mask id="mask0_748_1366" style="mask-type:luminance" maskUnits="userSpaceOnUse" x="0" y="0" width="651" height="164">
<path d="M650.02 0.0100098H0.180176V163.69H650.02V0.0100098Z" fill="white"/>
</mask>
<g mask="url(#mask0_748_1366)">
<path d="M484.78 5.53003C463.65 5.53003 450.62 16.39 446.1 37.81L443.09 52.0201L443.08 52.03C442.49 54.89 442.19 57.73 442.19 60.48C442.19 71.21 446.99 80.68 456.43 88.61C466.29 96.97 471.3 104.44 471.3 110.84C471.3 111.6 471.21 112.39 471.04 113.19L467.32 130.5C465.92 137.18 462.41 140.3 456.27 140.3C450.33 140.3 449.52 137.47 449.52 134.7C449.52 133.72 449.66 132.6 449.94 131.34L454.55 109.63H430.83L426.39 130.48C425.59 134.21 425.18 137.69 425.18 140.8C425.18 159.66 439.81 163.66 452.1 163.7C473.24 163.7 486.28 152.81 490.86 131.34L494.96 112.21C495.55 109.51 495.85 106.81 495.85 104.2C495.85 93.63 491.01 84.1901 481.47 76.1501C471.55 67.7401 466.52 60.45 466.52 54.47C466.52 53.78 466.58 53.0801 466.7 52.4301L469.63 38.69C471.08 31.99 474.59 28.88 480.68 28.88H480.82C486.65 28.93 487.43 31.74 487.43 34.47C487.43 35.45 487.29 36.57 487.01 37.83L482.39 59.53H506.12L510.56 38.6801C511.36 34.9501 511.77 31.4901 511.77 28.3701C511.78 9.50006 497.1 5.53003 484.78 5.53003Z" fill="#231F20"/>
<path d="M529.92 7.91992L524.95 31.2599H545.41L517.77 161.21H541.5L569.15 31.2599H589.61L594.57 7.91992H529.92Z" fill="#231F20"/>
<path d="M650.02 21.11C650.02 15.02 648.04 9.98002 644.08 5.99002C640.12 1.99002 635.13 0 629.1 0C623.06 0 618.05 1.99002 614.06 5.99002C610.07 9.98002 608.08 15.02 608.08 21.11C608.08 27.21 610.06 32.23 614.02 36.19C617.98 40.15 623.01 42.13 629.1 42.13C635.18 42.13 640.2 40.15 644.13 36.19C648.05 32.23 650.02 27.21 650.02 21.11ZM616.38 34.07C613.05 30.64 611.38 26.32 611.38 21.11C611.38 15.83 613.05 11.49 616.38 8.07001C619.7 4.64001 623.95 2.93002 629.11 2.93002C634.25 2.93002 638.49 4.63001 641.78 8.07001C645.08 11.49 646.72 15.84 646.72 21.11C646.72 26.32 645.06 30.64 641.72 34.07C638.39 37.49 634.18 39.21 629.1 39.21C623.95 39.21 619.7 37.5 616.38 34.07ZM624.39 32.33V23.1H630.79L634.76 32.33H638.72L634.09 22.34C636.98 21.27 638.43 19.23 638.43 16.21C638.43 14.15 637.74 12.51 636.36 11.31C634.91 10.05 632.59 9.43002 629.38 9.43002H620.9V32.33H624.39ZM624.39 12.73H629.38C631.52 12.73 632.97 13.07 633.72 13.76C634.47 14.32 634.85 15.21 634.85 16.4C634.85 17.66 634.47 18.56 633.72 19.13C632.83 19.82 631.39 20.17 629.38 20.17H624.39V12.73Z" fill="#231F20"/>
</g>
</svg>
